<svg width="25" height="25" viewBox="0 0 25 25" fill="none" xmlns="http://www.w3.org/2000/svg">
<g id="mdi:cart">
<path id="Vector" d="M17.918 18.5C16.808 18.5 15.918 19.39 15.918 20.5C15.918 21.0304 16.1287 21.5391 16.5038 21.9142C16.8788 22.2893 17.3875 22.5 17.918 22.5C18.4484 22.5 18.9571 22.2893 19.3322 21.9142C19.7073 21.5391 19.918 21.0304 19.918 20.5C19.918 19.9696 19.7073 19.4609 19.3322 19.0858C18.9571 18.7107 18.4484 18.5 17.918 18.5ZM1.91797 2.5V4.5H3.91797L7.51797 12.09L6.15797 14.54C6.00797 14.82 5.91797 15.15 5.91797 15.5C5.91797 16.0304 6.12868 16.5391 6.50376 16.9142C6.87883 17.2893 7.38754 17.5 7.91797 17.5H19.918V15.5H8.33797C8.27166 15.5 8.20808 15.4737 8.16119 15.4268C8.11431 15.3799 8.08797 15.3163 8.08797 15.25C8.08797 15.2 8.09797 15.16 8.11797 15.13L9.01797 13.5H16.468C17.218 13.5 17.878 13.08 18.218 12.47L21.798 6C21.868 5.84 21.918 5.67 21.918 5.5C21.918 5.23478 21.8126 4.98043 21.6251 4.79289C21.4375 4.60536 21.1832 4.5 20.918 4.5H6.12797L5.18797 2.5M7.91797 18.5C6.80797 18.5 5.91797 19.39 5.91797 20.5C5.91797 21.0304 6.12868 21.5391 6.50376 21.9142C6.87883 22.2893 7.38754 22.5 7.91797 22.5C8.4484 22.5 8.95711 22.2893 9.33218 21.9142C9.70725 21.5391 9.91797 21.0304 9.91797 20.5C9.91797 19.9696 9.70725 19.4609 9.33218 19.0858C8.95711 18.7107 8.4484 18.5 7.91797 18.5Z" fill="#262626" fill-opacity="0.87"/>
</g>
</svg>
